<svg width="49" height="48" viewBox="0 0 49 48" fill="none" xmlns="http://www.w3.org/2000/svg">
<path d="M48.7298 24C48.7298 28.7467 47.3009 33.3869 44.6236 37.3337C41.9464 41.2805 38.1411 44.3566 33.689 46.1731C29.2369 47.9896 24.3379 48.4649 19.6116 47.5388C14.8852 46.6128 10.5438 44.327 7.13633 40.9706C3.72883 37.6141 1.4083 33.3377 0.468176 28.6822C-0.47195 24.0266 0.0105571 19.201 1.85468 14.8156C3.6988 10.4302 6.82171 6.68187 10.8285 4.04472C14.8353 1.40757 19.546 0 24.3649 0C27.5646 0 30.7329 0.620775 33.689 1.82689C36.6451 3.033 39.331 4.80083 41.5935 7.02943C43.856 9.25804 45.6507 11.9038 46.8752 14.8156C48.0996 17.7274 48.7298 20.8483 48.7298 24Z" fill="#F7CA11"/>
<path d="M12.442 26.8354C13.0216 28.8997 14.5934 29.932 17.1573 29.9322C18.807 29.9322 20.0556 29.3831 20.903 28.2849L24.381 30.2613C22.7308 32.6113 20.3007 33.7862 17.0908 33.786C14.3262 33.786 12.108 32.9625 10.4362 31.3155C8.83079 29.6334 7.93421 27.4132 7.92801 25.1044C7.92181 22.7956 8.80645 20.5708 10.4028 18.8803C12.0523 17.2231 14.1702 16.3945 16.7564 16.3945C17.8906 16.3624 19.0188 16.5691 20.0655 17.0008C21.1121 17.4325 22.0532 18.0793 22.8259 18.8978C24.4214 20.5704 25.2809 22.7965 25.217 25.0907C25.2134 25.6764 25.1574 26.2605 25.0496 26.8364L12.442 26.8354ZM12.3741 23.5411H20.903C20.7354 22.547 20.1917 21.6524 19.3813 21.0374C18.6193 20.4911 17.6984 20.2024 16.756 20.2143C15.7244 20.1745 14.7098 20.4824 13.8798 21.0871C13.0992 21.7041 12.5657 22.5735 12.3741 23.5411Z" fill="#F4F4F4"/>
<path d="M36.0517 33.7859C34.8842 33.7985 33.7256 33.5829 32.6432 33.1515C31.5609 32.7202 30.5761 32.0816 29.7459 31.2728C28.9157 30.464 28.2567 29.5011 27.8069 28.4397C27.3571 27.3783 27.1255 26.2396 27.1255 25.0894C27.1255 23.9393 27.3571 22.8006 27.8069 21.7392C28.2567 20.6778 28.9157 19.7148 29.7459 18.906C30.5761 18.0973 31.5609 17.4587 32.6432 17.0273C33.7256 16.5959 34.8842 16.3803 36.0517 16.393C37.6127 16.3759 39.1493 16.7744 40.4994 17.5463C41.7936 18.2705 42.8498 19.3451 43.5427 20.6427L39.8322 22.7837C39.5015 22.1071 38.9712 21.5445 38.3106 21.1697C37.616 20.7706 36.8241 20.5657 36.0201 20.5769C35.4252 20.5591 34.8329 20.6626 34.2805 20.8808C33.7281 21.099 33.2274 21.4273 32.8097 21.845C31.9922 22.7273 31.5389 23.8786 31.5389 25.0731C31.5389 26.2676 31.9922 27.419 32.8097 28.3012C33.2273 28.719 33.728 29.0473 34.2805 29.2654C34.8329 29.4836 35.4252 29.5869 36.0201 29.569C36.833 29.5833 37.6352 29.3844 38.3443 28.9927C39.0064 28.6273 39.5378 28.0694 39.8656 27.3951L43.6109 29.5036C42.8771 30.7977 41.8027 31.873 40.5008 32.6165C39.1541 33.3981 37.6161 33.8023 36.0531 33.7855" fill="#F4F4F4"/>
</svg>
